<?xml version="1.0" standalone="no"?>
<!DOCTYPE svg PUBLIC "-//W3C//DTD SVG 20010904//EN"
 "http://www.w3.org/TR/2001/REC-SVG-20010904/DTD/svg10.dtd">
<svg version="1.0" xmlns="http://www.w3.org/2000/svg"
 width="1066.000000pt" height="1280.000000pt" viewBox="0 0 1066.000000 1280.000000"
 preserveAspectRatio="xMidYMid meet">
<g transform="translate(0.000000,1280.000000) scale(0.100000,-0.100000)"
fill="#ffffff" stroke="none">
<path d="M515 12776 c-108 -30 -177 -67 -248 -135 -103 -97 -186 -249 -220
-406 -50 -222 -47 102 -47 -5835 0 -5937 -3 -5613 47 -5835 48 -218 183 -414
340 -493 67 -34 206 -72 264 -72 76 0 266 53 374 104 114 54 9291 5742 9363
5803 64 55 149 158 190 233 36 65 82 211 82 260 0 49 -46 195 -82 260 -41 75
-126 178 -190 233 -29 24 -681 434 -1448 909 -767 476 -2842 1762 -4610 2858
-1768 1096 -3255 2013 -3305 2036 -81 39 -137 56 -288 93 -67 16 -130 12 -222
-13z"/>
</g>
</svg>
